<svg width="338" height="240" viewBox="0 0 338 240" xmlns="http://www.w3.org/2000/svg" xmlns:xlink="http://www.w3.org/1999/xlink"><defs><path id="a" d="M0 0h338v240H0z"/></defs><g fill="none" fill-rule="evenodd"><path d="M0 0h338v240H0z"/><mask id="b" fill="#fff"><use xlink:href="#a"/></mask><use fill="#FFF" xlink:href="#a"/><path d="M274.634 115.343c-.141 14.07-2.833 25.536-7.974 36.565-3.763 8.074-8.516 15.486-14.188 22.254-5.81 6.932-12.37 13.213-19.475 18.89-10.318 8.247-21.306 15.444-33.053 21.552-13.063 6.793-26.808 11.491-41.419 13.309-5.365.667-10.861 1.104-16.33.241-4.138-.653-8.426-.665-12.436-1.735-5.836-1.556-11.637-3.46-17.18-5.84-11.15-4.783-20.283-12.296-27.556-21.916-3.98-5.263-8.014-10.563-11.262-16.273-3.368-5.924-5.885-12.332-8.645-18.586a409.667 409.667 0 0 1-6.7-16.021c-3.087-7.879-6.514-15.674-8.891-23.768-3.027-10.307-6.031-20.727-5.886-31.647.14-10.586 2.298-20.79 7.714-29.954 4.742-8.022 11.502-14.18 19.776-18.802 9.14-5.108 19.04-6.943 29.236-6.978 7.448-.025 14.898 1.024 22.216 2.703 6.03 1.381 12.065 2.883 18.182 3.697 6.44.856 12.922 1.793 19.482 1.355 9.304-.62 18.609-1.27 27.922-1.733 8.182-.404 16.303.327 24.396 1.61A66.875 66.875 0 0 1 231.5 50.26c11.223 5.479 21.224 12.485 28.45 22.978 4.298 6.239 8.35 12.549 10.601 19.81 1.098 3.538 2.046 7.15 2.671 10.794.762 4.435 1.111 8.94 1.413 11.501" fill-opacity=".5" fill="#97CAD1" style="mix-blend-mode:multiply" mask="url(#b)" transform="rotate(30 159.134 132.634)"/><path stroke="#FA6666" stroke-width="3.51" stroke-linecap="round" stroke-linejoin="round" d="M271.538 156.394H86.063l-27.684 33.352h189.464zm-178.082 0l9.893 32.451m36.876-32.451l10.793 35.155m35.976-35.155l12.592 35.155m35.976-35.155l9.894 33.352"/><path d="M258.947 136.563l39.574 54.986" stroke="#FA6666" stroke-width="7.02" stroke-linecap="round" stroke-linejoin="round"/><path d="M262.527 150.986h5.62c4.854 0 8.788-2.297 8.788-6.994 0-4.696-3.934-8.33-8.787-8.33H254.45" stroke="#00455D" stroke-width="1.521" stroke-linecap="round" stroke-linejoin="round"/><path d="M262.372 134.76h-7.922l40.13 54.87s1.895 4.044 3.961 2.448c2.067-1.596.172-3.989-2.411-7.066-2.584-3.077-35.51-49.894-35.51-49.894" stroke="#00455D" stroke-width="1.521" stroke-linecap="round" stroke-linejoin="round"/><path d="M273.337 160.627l-24.552 33.398s-185.957.514-189.694 0c-3.736-.514-2.197-2.845-2.197-2.845l29.23-36.588h182.914" stroke="#00455D" stroke-width="1.521" stroke-linecap="round" stroke-linejoin="round"/><path stroke="#00455D" stroke-width="1.521" stroke-linecap="round" stroke-linejoin="round" d="M267.041 159.099H240.06l7.854 27.943zm-74.651 0l8.684 28.845h41.683l-8.25-28.845zm-48.568 0l9.302 28.616 41.965.229-9.302-28.845z"/><path stroke="#353E48" stroke-width="1.521" stroke-linecap="round" stroke-linejoin="round" d="M96.154 159.099l9.021 28.845h42.245l-9.021-28.845z"/><path stroke="#00455D" stroke-width="1.521" stroke-linecap="round" stroke-linejoin="round" d="M62.876 189.746L86.585 159.1h4.69l8.476 30.647z"/><path d="M88.959 192c0 17.673-14.094 32-31.48 32C40.094 224 26 209.673 26 192c0-17.673 14.094-32 31.48-32 17.385 0 31.479 14.327 31.479 32zM330 192c0 17.673-14.094 32-31.48 32-17.385 0-31.479-14.327-31.479-32 0-17.673 14.094-32 31.48-32C315.906 160 330 174.327 330 192z" stroke="#00455D" stroke-width="1.521" fill="#FA6666" stroke-linecap="round" stroke-linejoin="round"/><path d="M70.071 191.55c0 6.471-5.235 11.718-11.693 11.718-6.456 0-11.692-5.247-11.692-11.718 0-6.473 5.236-11.719 11.692-11.719 6.458 0 11.693 5.246 11.693 11.719z" stroke="#00455D" stroke-width="1.521" stroke-linecap="round" stroke-linejoin="round"/><path d="M111.444 191.099c0 4.729-3.826 8.563-8.545 8.563-4.719 0-8.544-3.834-8.544-8.563 0-4.73 3.825-8.564 8.544-8.564 4.72 0 8.545 3.835 8.545 8.564" fill="#97CAD1"/><path d="M111.444 191.099c0 4.729-3.826 8.563-8.545 8.563-4.719 0-8.544-3.834-8.544-8.563 0-4.73 3.825-8.564 8.544-8.564 4.72 0 8.545 3.835 8.545 8.564z" stroke="#00455D" stroke-width="1.521" stroke-linecap="round" stroke-linejoin="round"/><path d="M160.012 191.099c0 4.729-3.826 8.563-8.545 8.563-4.718 0-8.544-3.834-8.544-8.563 0-4.73 3.826-8.564 8.544-8.564 4.719 0 8.545 3.835 8.545 8.564" fill="#97CAD1"/><path d="M160.012 191.099c0 4.729-3.826 8.563-8.545 8.563-4.718 0-8.544-3.834-8.544-8.563 0-4.73 3.826-8.564 8.544-8.564 4.719 0 8.545 3.835 8.545 8.564z" stroke="#00455D" stroke-width="1.521" stroke-linecap="round" stroke-linejoin="round"/><path d="M208.58 191.099c0 4.729-3.826 8.563-8.544 8.563-4.72 0-8.545-3.834-8.545-8.563 0-4.73 3.826-8.564 8.545-8.564 4.718 0 8.544 3.835 8.544 8.564" fill="#97CAD1"/><path d="M208.58 191.099c0 4.729-3.826 8.563-8.544 8.563-4.72 0-8.545-3.834-8.545-8.563 0-4.73 3.826-8.564 8.545-8.564 4.718 0 8.544 3.835 8.544 8.564z" stroke="#00455D" stroke-width="1.521" stroke-linecap="round" stroke-linejoin="round"/><path d="M256.249 191.099c0 4.729-3.826 8.563-8.545 8.563-4.719 0-8.544-3.834-8.544-8.563 0-4.73 3.825-8.564 8.544-8.564 4.72 0 8.545 3.835 8.545 8.564" fill="#97CAD1"/><path d="M256.249 191.099c0 4.729-3.826 8.563-8.545 8.563-4.719 0-8.544-3.834-8.544-8.563 0-4.73 3.825-8.564 8.544-8.564 4.72 0 8.545 3.835 8.545 8.564z" stroke="#00455D" stroke-width="1.521" stroke-linecap="round" stroke-linejoin="round"/><path d="M306.615 191.099c0 4.729-3.825 8.563-8.544 8.563-4.718 0-8.544-3.834-8.544-8.563 0-4.73 3.826-8.564 8.544-8.564 4.719 0 8.544 3.835 8.544 8.564z" stroke="#353E48" stroke-width="1.521" stroke-linecap="round" stroke-linejoin="round"/><path d="M77.298 88.789l-8.126 42.887s3.611 3.121 5.16 1.9c1.548-1.222 6.062-6.515 11.093-6.38l1.806.136s-.788-5.428 1.67-8.957c2.458-3.528 13.552-28.23-11.603-29.586" fill="#0098AB"/><path d="M91.652 151.111c11.763 7.175 10.827 4.792 12.297 8.065 1.47 3.274 13.902 19.754 13.902 19.754l7.084-6.405s-17.644-28.084-37.96-43.69c0 0-5.08-1.468-6.952 1.334-1.87 2.801-5.213 5.602-8.153 4.935 0 0 .401 6.537 19.782 16.007z" fill="#F6F7F8"/><path d="M112.343 132.056s7.329-3.01 12.126-2.737c4.797.273 8.527-.686 8.527-.686s3.465-18.21-.666-21.633l8.794-5.067s-.932-18.073-14.39-23.961c0 0-6.796 2.19-11.46 32.314-2.398 16.293-2.93 21.77-2.93 21.77m.899 1.5s.135 4.258 2.449 6.319c2.313 2.06 24.068 13.324 24.068 13.324s13.49 14.286 16.349 18.82c2.857 4.532 6.667 9.615 6.667 9.615l8.029-7.05s-11.84-29.077-37.287-44.325c0 0-8.98-.137-13.2.961-4.217 1.1-7.075 2.336-7.075 2.336" fill="#EFDECC"/><path d="M164.33 130.867s-1.62 6.196 0 9.155c1.62 2.957 25.317 20.88 25.317 20.88l6.341-10.788-14.852-18.27s-3.338-2.129-5.007-.977c-1.668 1.15-6.478.427-7.494-.342-1.017-.77-4.306.342-4.306.342" fill="#0098AB"/><path d="M180.007 86.986s8.282 5.146 8.518 18.526c.237 13.38 1.438 15.781 1.438 15.781l2.428 3.307-3.866 3.897-4.57-2.229-1.373 6.69s-2.232-3.042-5.493-2.893c-3.262.148-5.322 1.567-9.098 0-3.777-1.568-6.18-.819-6.18-.819l18.196-42.26z" fill="#F6F7F8"/><path d="M200.657 76.169l-3.14 2.695s1.237 2.6.095 4.236c-1.012 1.45-1.998 3.633-3.902 3.886-1.903.253-3.33 1.794-3.901 3.912-.571 2.118 1.141 5.102 1.141 5.102l13.133-17.713-3.426-2.118z" fill="#FFF"/><path d="M196.82 74.382s-1.884 7.473-18.944 3.886c-2.616-.893-9.943 1.7-11.617 2.698-1.675.998-7.746 1.188-8.792-2.698-1.047-3.886 3.577-4.784 4.562-4.784.985 0 4.125-2.394 1.927-4.988-1.256-1.197 3.873-2.594 8.792-1.596 4.918.998 12.245-1.479 17.164-.34 4.92 1.138 7.43 5.727 6.907 7.822" fill="#EFDECC"/><path fill="#FA6666" d="M204.94 34.704l-20.644 12 24.284 7.831z"/><path d="M217.487 93.034s-6.155 12.92-6.885 20.062c-.73 7.143-2.922 24.369-2.922 24.369l20.763-3.361s-1.461-4.727 0-8.403c1.46-3.676 4.694-15.44 4.694-15.44l-3.443-1.891 4.07-11.66s-8.243-6.301-16.277-3.676" fill="#FFF"/><path d="M212.178 139.835s13.574 12.208 18.679 14.757l10.102-10.87-12.152-8.961-16.63 5.074z" fill="#EFDECC"/><path d="M126.763 60.845s-.817-8.234 6.204-10.414c7.022-2.18 12.654 5.207 12.654 5.207l-18.858 5.207zm138.48 128.007l3.957 7.204s5.756-4.596 5.876-6.334c.12-1.74 1.919-2.484 2.398-2.484.48 0 7.556-8.447 7.556-8.447s-2.4-3.105-5.157-2.483c-2.758.62-7.196 3.104-7.196 3.104s-1.438 6.253-4.556 6.728l-2.878 2.712z" fill="#0098AB"/><path d="M203.183 140.169l17.09 13.521m-36.605-73.014s-2.75 6.446-5.345 6.605c-2.139 4.508-17.412 43.877-17.412 43.877s3.513-1.894 5.804-.78c2.291 1.113 4.276 2.347 7.331 1.253 3.054-1.095 6.72-.599 8.247.425l2.902-5.177" stroke="#00455D" stroke-width="1.521" stroke-linecap="round" stroke-linejoin="round"/><path d="M178 100.017s3.106 16.73 3.924 19.468c.817 2.739 3.106 6.812 7.52 9.045 4.415 2.232 7.849 6.68 7.849 9.208 0 2.53 5.232 3.332 5.232 3.332s4.578-2.765-1.962-9.839-11.282-10.687-11.282-10.687 3.434-26.808-4.087-29.952" stroke="#00455D" stroke-width="1.521" stroke-linecap="round" stroke-linejoin="round"/><path d="M190.62 97.803l25.154-32.069s.162-2.425-3.246-1.922l-2.759-2.967s-5.022 4.486-4.62 5.555c.4 1.069 2.51 2.013.563 4.222-1.947 2.21-7.79 7.571-7.79 7.571s1.461 6.152-1.784 6.94c-3.246.789-8.44 3.6-7.14 7.309m8.789-18.977s0-9.076-10.793-9.916" stroke="#00455D" stroke-width="1.521" stroke-linecap="round" stroke-linejoin="round"/><path d="M193.29 69.86s-.636-4.316-10.497-3.505c-9.86.811-11.928.513-15.586-.101m22.485 4.109s-5.29-1.356-8.245-.088c-1.867 1.11-7.934.117-11.357-.97-3.422-1.087-9.179.727-9.179.727m33.279 2.531s-3.444 3.346-20.976.819c-8.449 0-12.303 2.787-12.303 2.787m34.178 0s-6.395 2.769-14.661 1.444c-8.266-1.325-12.321.359-12.321.359" stroke="#00455D" stroke-width="1.521" stroke-linecap="round" stroke-linejoin="round"/><path d="M217.37 174.423s6.232 9.337 8.309 9.101c2.077-.236 5.423-5.437 8.077-5.2 2.655.236 4.27.613 4.5 1.31.231.699-11.077 16.656-12 16.42-.924-.237-4.616-6.738-4.616-6.738l-9.462-4.077 2.077-4.788" stroke="#00455D" stroke-width="1.521" fill="#0098AB" stroke-linecap="round" stroke-linejoin="round"/><path d="M198.686 134.31a3.151 3.151 0 0 1-3.147 3.155 3.151 3.151 0 0 1-3.148-3.155 3.151 3.151 0 0 1 3.148-3.155 3.151 3.151 0 0 1 3.147 3.155" fill="#FFF"/><path d="M198.686 134.31a3.151 3.151 0 0 1-3.147 3.155 3.151 3.151 0 0 1-3.148-3.155 3.151 3.151 0 0 1 3.148-3.155 3.151 3.151 0 0 1 3.147 3.155z" stroke="#00455D" stroke-width="1.521" stroke-linecap="round" stroke-linejoin="bevel"/><path d="M213.077 77.972L206.297 32s-22.001 13.802-22.001 15.676c0 1.875 26.834 11.245 26.834 11.245m-22.337 70.431l5.396-5.408m-64.258-50.479s-8.025 7.644-10.748 19.926c-2.723 12.282-7.74 37.288-7.74 37.288s5.303 1.834 12.613-1.697c4.012-1.696 12.324-.99 12.324-.99s-.86-10.17 1.147-13.702" stroke="#00455D" stroke-width="1.521" stroke-linecap="round" stroke-linejoin="round"/><path d="M129.719 106.817l14.057-6.222s1.683-18.523-15.243-26.229m-3.598 18.93l6.296 12.62m12.48-2.705s7.083 18.856 10.237 22.715c3.154 3.859 4.25 10.061 2.605 12.128s-3.153 4.075-5.484 2.382-.96-2.292-2.057-3.233c-1.097-.94 2.468-5.849 2.468-5.849s-13.849-9.979-17.551-24.656" stroke="#00455D" stroke-width="1.521" stroke-linecap="round" stroke-linejoin="round"/><path d="M151.018 134.31a3.151 3.151 0 0 1-3.148 3.155 3.151 3.151 0 0 1-3.148-3.155 3.151 3.151 0 0 1 3.148-3.155 3.151 3.151 0 0 1 3.148 3.155" fill="#FFF"/><path d="M151.018 134.31a3.151 3.151 0 0 1-3.148 3.155 3.151 3.151 0 0 1-3.148-3.155 3.151 3.151 0 0 1 3.148-3.155 3.151 3.151 0 0 1 3.148 3.155zm-11.81-50.93s-2.938-9.01 2.576-10.134c5.514-1.123 9.105 1.142 9.234-8.795m-35.977-.001s13.165-2.01 22.674-4.967c9.508-2.956 10.605-3.566 10.605-3.566s-2.157-7.68-11.5-6.705c-9.345.976-8.517 11.338-8.517 11.338" stroke="#00455D" stroke-width="1.521" stroke-linecap="round" stroke-linejoin="bevel"/><path d="M126.882 62.648s-1.148 5.23 2.935 6.152c0 0-2.134 3.463 2.313 2.77m5.397-9.824s-4.048 3.37 0 6.31m4.497-7.388s-.124 3.187 2.87 2.857c2.994-.33 2.994-2.857 2.994-2.857s1.996 2.088 3.867.88c1.872-1.21.873-3.078 0-3.407m-38.506 73.253s-.37 6.122 4.575 8.727c4.946 2.605 25.968 14.567 25.968 14.567l19.043 26.946 9.769-8.058s-10.882-27.586-37.887-46.027m21.697 12.62l17.089 13.521" stroke="#00455D" stroke-width="1.521" stroke-linecap="round" stroke-linejoin="round"/><path d="M166.308 178.73l3.129 4.283s-1.034 2.436-.69 3.249c.345.812 4.144 6.729 4.886 6.149.741-.58 18.184-17.868 18.707-19.376.522-1.508-3.104-3.892-5.712-2.874a7470.902 7470.902 0 0 0-12.024 4.73l-.971-2.156" stroke="#353E48" stroke-width="1.521" fill="#0098AB" stroke-linecap="round" stroke-linejoin="round"/><path d="M174.017 175.324s2.45 6.954-5.011 8.113" stroke="#353E48" stroke-width="1.521" stroke-linecap="round" stroke-linejoin="round"/><path d="M129.066 132.056l-2.332 5.403s8.108 5.117 10.294 6.345c2.186 1.229 5.595 1.298 6.794-.697m-12.592-10.149l-1.798 5.408" stroke="#00455D" stroke-width="1.521" stroke-linecap="round" stroke-linejoin="round"/><path d="M83.958 81.577s-7.4 4.953-12.613 45.09c-.84 5.636-.84 13.664 6.307 17.592 7.147 3.928 24.638 13.492 24.638 13.492l15.136 21.179s6.895-4.27 8.408-8.028c0 0-16.313-25.448-33.635-39.795" stroke="#00455D" stroke-width="1.521" stroke-linecap="round" stroke-linejoin="bevel"/><path d="M82.704 87.887s20.046 7.268 11.193 24.676c0 0-4.131 4.978-4.468 15.41 0 0-7.897-.835-9.41 1.946-1.512 2.782-4.261 5.425-7.147 4.729-2.888-.695-4.675-1.53-5.5-.695" stroke="#00455D" stroke-width="1.521" stroke-linecap="round" stroke-linejoin="bevel"/><path d="M79.1 90.592s-1.141 18.199 9.483 28.901c10.623 10.703 15.271 16.053 15.271 16.053l-1.826 1.382 4.814 4.142s2.822-5.005-.996-9.839c-3.818-4.833-16.39-22.267-16.39-22.267V95.327" stroke="#00455D" stroke-width="1.521" stroke-linecap="round" stroke-linejoin="round"/><path d="M79.964 66.652s2.442-7.889 10.204-7.602c7.763.287 10.674 7.888 10.674 9.466 0 1.578.832 2.725.693 5.45s-.905 11.761-6.967 10.757c-6.063-1.004-1.784 9.474-1.784 9.474M77.266 69.86s.15 7.261 8.095 9.915m14.39-11.705s-5.582-.567-8.094 5.395" stroke="#00455D" stroke-width="1.521" stroke-linecap="round" stroke-linejoin="bevel"/><path d="M104.249 134.31a3.151 3.151 0 0 1-3.148 3.155 3.152 3.152 0 0 1-3.148-3.155 3.152 3.152 0 0 1 3.148-3.155 3.151 3.151 0 0 1 3.148 3.155" fill="#FFF"/><path d="M104.249 134.31a3.151 3.151 0 0 1-3.148 3.155 3.152 3.152 0 0 1-3.148-3.155 3.152 3.152 0 0 1 3.148-3.155 3.151 3.151 0 0 1 3.148 3.155z" stroke="#00455D" stroke-width="1.521" stroke-linecap="round" stroke-linejoin="bevel"/><path d="M107.846 138.366l17.988 14.423" fill="#FFF"/><path d="M107.846 138.366l17.988 14.423" stroke="#00455D" stroke-width="1.521" stroke-linecap="round" stroke-linejoin="bevel"/><path d="M122.237 176.54l3.274 6.654s-1.123 2.766.577 4.329a32.9 32.9 0 0 1 2.966 3.125l3.796-4.088s.136-2.567.764-2.966c.628-.4 7.769-3.645 10.208-9.296 0 0-1.23-5.29-9.074-.72-3.29 1.562-4.681 2.404-4.681 2.404s-1.772 5.53-3.164 6.37" stroke="#353E48" stroke-width="1.521" fill="#0098AB" stroke-linecap="round" stroke-linejoin="round"/><path d="M270.596 178.93s.794 5.107-4.454 5.408" stroke="#353E48" stroke-width="1.521" stroke-linecap="round" stroke-linejoin="round"/><path d="M211.278 133.86s3.175-29.118 5.921-34.245c2.747-5.128 8.695-15.062 5.296-19.797-3.399-4.735-6.457-9.138-5.098-10.37 1.36-1.234 14.445-5.183 15.465-3.81 1.02 1.374 6.288 12.488 6.288 13.972 0 1.483.51 6.215-5.948 7.799-2.55 1.24-2.04 6.735-2.04 6.735" stroke="#00455D" stroke-width="1.521" stroke-linecap="round" stroke-linejoin="round"/><path d="M221.172 93.296s11.511 1.352 23.194 12.48c11.684 11.126 24.742 21.568 25.429 23.645.687 2.077 2.576 10.01-3.265 7.589-2.75-1.557-2.062-5.99-2.062-5.99l-41.921-27.34m12.116 7.644l-4.497 17.127m-7.514 2.224s7.754-.948 7.582 0c-.172.947 2.557 5.766 4.897 6.432 2.341.665 8.545 4.253 7.511 5.79-1.034 1.538-10.512 13.497-10.512 13.497s-19.301-13.691-20.852-17.438m-3.598-.59l19.787-4.507m1.799-59.493l6.296-1.803m-3.608 4.507s-2.824.648-2.683 2.597c.142 1.949 2.244 2.812 3.593 2.812" stroke="#00455D" stroke-width="1.521" stroke-linecap="round" stroke-linejoin="round"/><path d="M190.592 159.514l5.41 3.322c2.129 3 4.523 5.536 7.183 7.608s6.44 4.9 11.34 8.486l3.049-5.472-19.134-23.373-7.848 9.429zm44.97-6.598l11.896 7.443 17.24 25.782c4.938-.9 6.798-2.97 5.579-6.207-1.282-3.404-6.168-12.41-14.658-27.018l-13.254-8.24-6.803 8.24z" fill="#97CAD1"/><path d="M259.218 187.65s3.226-2.065 5.094 0c1.868 2.065 3.227 6.71 4.755 5.506 1.528-1.205 15.963-17.894 15.963-17.894s-1.868-2.395-5.265-1.972c-3.396.423-9.863 5.084-9.863 5.084s-11.194-21.006-13.062-24.81c-1.868-3.803-11.384-9.79-11.384-9.79" stroke="#00455D" stroke-width="1.521" stroke-linecap="round" stroke-linejoin="round"/><path stroke="#00455D" stroke-width="1.521" stroke-linecap="round" stroke-linejoin="round" d="M234.663 153.69l13.015 6.961 17.565 25.49m-73.465-25.685s3.41 2.665 4.91 3.245c0 0 2.04 5.677 5.058 7.183 2.443 1.576 12.712 9.848 12.712 9.848l3.116-5.909s-24.695-35.453-30.58-39.161"/><path d="M164.213 129.352s-2.11 9 1.56 13.079c3.67 4.079 23.968 18.47 23.968 18.47l8.945-10.765" stroke="#00455D" stroke-width="1.521" stroke-linecap="round" stroke-linejoin="round"/></g></svg>