<svg width="338" height="194" viewBox="0 0 338 194" xmlns="http://www.w3.org/2000/svg" xmlns:xlink="http://www.w3.org/1999/xlink"><defs><path id="a" d="M0 0h338v194H0z"/></defs><g fill="none" fill-rule="evenodd"><mask id="b" fill="#fff"><use xlink:href="#a"/></mask><use fill="#FFF" xlink:href="#a"/><g mask="url(#b)"><path d="M185.309 149.862c4.336-3.732 7.21-7.561 9.325-12.025a41.432 41.432 0 0 0 3.294-10.174c.67-3.594.947-7.247.898-10.909a81.042 81.042 0 0 0-1.74-15.76c-1.223-5.777-3.271-11.212-6.436-16.158-1.162-1.816-2.429-3.612-4.093-5.058-1.259-1.094-2.357-2.403-3.713-3.35-1.973-1.376-4.045-2.652-6.2-3.723-4.331-2.157-8.997-2.98-13.842-2.683-2.651.162-5.327.317-7.93.82-2.7.524-5.334 1.434-7.982 2.229a167.476 167.476 0 0 0-6.688 2.15c-3.236 1.122-6.532 2.117-9.654 3.512-3.975 1.776-7.979 3.589-11.335 6.496-3.253 2.818-5.873 6.153-7.338 10.212-1.282 3.554-1.47 7.235-.794 10.978.745 4.135 2.702 7.644 5.293 10.772 1.894 2.285 4.121 4.288 6.51 6.087 1.969 1.482 3.976 2.934 5.79 4.592 1.91 1.746 3.855 3.483 5.393 5.604 2.182 3.008 4.355 6.025 6.588 8.995 1.963 2.609 4.263 4.9 6.727 7.04a26.135 26.135 0 0 0 6.696 4.22c4.567 1.997 9.296 3.22 14.4 2.68 3.036-.322 6.03-.737 8.861-1.952 1.38-.591 2.744-1.248 4.036-2.012 1.572-.93 3.06-2.004 3.934-2.583" fill="#0098AB" style="mix-blend-mode:multiply"/><path d="M200.445 134.578a45.946 45.946 0 0 1-11.619 3.55c-4.117.687-8.31.92-12.52.776a94.431 94.431 0 0 1-18.161-2.374c-6.67-1.545-12.968-4.03-18.729-7.79-2.115-1.38-4.21-2.88-5.912-4.83-1.288-1.474-2.818-2.769-3.938-4.352-1.63-2.303-3.146-4.718-4.429-7.222-2.582-5.037-3.64-10.425-3.413-15.995.124-3.047.24-6.123.757-9.107.537-3.095 1.52-6.104 2.372-9.133a185.86 185.86 0 0 1 2.314-7.646c1.212-3.697 2.279-7.468 3.808-11.027 1.948-4.533 3.937-9.098 7.2-12.892 3.162-3.678 6.935-6.614 11.567-8.204 4.055-1.391 8.283-1.52 12.602-.655 4.772.956 8.852 3.29 12.51 6.347 2.672 2.233 5.028 4.843 7.152 7.636 1.751 2.3 3.468 4.644 5.417 6.77 2.052 2.24 4.095 4.52 6.57 6.34 3.51 2.583 7.03 5.155 10.497 7.795 3.046 2.32 5.736 5.021 8.254 7.908a31.791 31.791 0 0 1 5.011 7.805c2.403 5.303 3.921 10.775 3.42 16.637-.296 3.485-.702 6.922-2.032 10.151-.648 1.574-1.37 3.128-2.218 4.597-1.032 1.788-2.232 3.475-2.877 4.466-4.188 4.902-8.522 8.12-13.603 10.449z" fill="#97CAD1" style="mix-blend-mode:multiply"/><g stroke-linecap="round" stroke="#FFF" stroke-width="5.4"><path stroke-linejoin="round" d="M161.004 93.55l8.935-8.55v27.927"/><path d="M160 114.176h19.36"/></g></g></g></svg>