<svg width="338" height="194" viewBox="0 0 338 194" xmlns="http://www.w3.org/2000/svg" xmlns:xlink="http://www.w3.org/1999/xlink"><defs><path id="a" d="M0 0h338v194H0z"/></defs><g fill="none" fill-rule="evenodd"><mask id="b" fill="#fff"><use xlink:href="#a"/></mask><use fill="#FFF" xlink:href="#a"/><g mask="url(#b)"><path d="M206.86 123.935c-10.386 24.33-32.812 44.702-59.794 31.681-23.368-11.276-32.242-45.03-15.726-66.613 12.283-16.05 52.451-43.223 72.397-30.067 27.25 12.358 11.643 45.043 3.123 65z" fill="#0098AB" style="mix-blend-mode:multiply"/><path d="M189.058 121.862c4.336-3.732 7.21-7.561 9.325-12.025a41.432 41.432 0 0 0 3.294-10.174c.67-3.594.948-7.247.898-10.909a81.042 81.042 0 0 0-1.74-15.76c-1.223-5.777-3.271-11.212-6.436-16.158-1.162-1.816-2.429-3.612-4.093-5.058-1.259-1.094-2.357-2.403-3.713-3.35-1.973-1.376-4.045-2.652-6.2-3.723-4.331-2.157-8.997-2.98-13.842-2.683-2.651.162-5.327.317-7.93.82-2.7.524-5.334 1.434-7.982 2.229a167.476 167.476 0 0 0-6.688 2.15c-3.236 1.122-6.532 2.117-9.654 3.512-3.975 1.776-7.979 3.589-11.335 6.496-3.253 2.818-5.873 6.153-7.338 10.212-1.282 3.554-1.47 7.235-.794 10.978.746 4.135 2.702 7.644 5.293 10.772 1.894 2.285 4.121 4.288 6.51 6.087 1.97 1.482 3.976 2.934 5.79 4.592 1.91 1.746 3.855 3.483 5.393 5.604 2.183 3.008 4.355 6.025 6.589 8.995 1.962 2.609 4.262 4.9 6.726 7.04a26.135 26.135 0 0 0 6.696 4.22c4.567 1.997 9.296 3.22 14.4 2.68 3.036-.322 6.03-.737 8.861-1.952 1.38-.591 2.744-1.248 4.036-2.012 1.572-.93 3.061-2.004 3.934-2.583" fill="#97CAD1" style="mix-blend-mode:multiply"/><path d="M159 86.208c1.716-4.139 4.28-6.208 7.695-6.208 4.311 0 7.041 3.376 6.828 6.956-.298 4.995-5.139 11.343-14.523 19.044h16" stroke="#FFF" stroke-width="5.4" stroke-linecap="round" stroke-linejoin="round"/></g></g></svg>