<svg width="338" height="194" viewBox="0 0 338 194" xmlns="http://www.w3.org/2000/svg" xmlns:xlink="http://www.w3.org/1999/xlink"><defs><path id="a" d="M0 0h338v194H0z"/></defs><g fill="none" fill-rule="evenodd"><mask id="b" fill="#fff"><use xlink:href="#a"/></mask><use fill="#FFF" xlink:href="#a"/><g mask="url(#b)"><path d="M195.853 158.998c-3.85.046-7.583-.851-11.264-2.104-5.27-1.794-10.544-3.574-15.78-5.513-3.344-1.238-6.715-2.49-9.91-4.202-4.346-2.33-8.338-5.438-11.87-9.436-3.252-3.681-5.967-7.846-8.106-12.569-1.914-4.222-3.22-8.72-4.045-13.486-.966-5.58-1.115-11.174-.545-16.766.468-4.593 1.546-9.054 3.118-13.288 2.843-7.655 6.994-14.076 12.477-19.063 3.511-3.193 7.37-5.653 11.6-7.258 3.68-1.396 7.434-2.096 11.228-2.287 3.02-.153 6.038.39 9.028 1.143 3.568.9 6.941 2.442 10.134 4.503 4.998 3.227 9.226 7.637 12.714 13.145 2.798 4.419 4.885 9.324 6.662 14.43.81 2.327 1.252 4.849 1.858 7.283.846 3.393 1.715 6.779 2.527 10.184a354.84 354.84 0 0 1 2.164 9.557c.849 4.057 1.69 8.114 2.01 12.315.3 3.967.16 7.897-.575 11.755-.75 3.94-2.173 7.532-4.203 10.744-3.18 5.033-7.319 8.255-12.282 9.922-2.272.763-4.597.991-6.94.991" fill="#97CAD1" style="mix-blend-mode:multiply"/><path d="M169.31 45.382c18.875 2.415 62.654 10.3 47.594 38.974-5.483 10.439-16.462 18.434-24.583 26.77-9.311 9.559-18.8 23.059-32.274 26.712-28.385 7.697-38.162-24.331-41.905-52.539-2.454-27.77 27.447-42.95 51.167-39.917z" fill="#0098AB" style="mix-blend-mode:multiply"/><path d="M164.16 85.039c.888-2.693 2.985-4.039 6.29-4.039 4.174 0 6.612 3.282 6.612 6.777 0 5.889-4.072 6.79-7.968 6.587 4.513 0 8.906 2.618 8.906 7.371S174.076 109 170.5 109c-3.316 0-5.841-1.61-7.5-3.782" stroke="#FFF" stroke-width="5.4" stroke-linecap="round" stroke-linejoin="round"/></g></g></svg>